<svg width="32" height="32" viewBox="0 0 32 32" fill="none" xmlns="http://www.w3.org/2000/svg">
<g id="Media / Icon">
<path id="Icon" fill-rule="evenodd" clip-rule="evenodd" d="M11.2309 3.28235C10.5879 3.28235 10.0082 3.66967 9.76216 4.2637C9.51611 4.85774 9.65212 5.5415 10.1068 5.99615L11.2309 7.12025V13.0934C11.2309 13.515 11.0634 13.9193 10.7653 14.2175L4.40641 20.5763C1.40202 23.5807 3.52985 28.7177 7.77869 28.7177H24.2213C28.4701 28.7177 30.598 23.5807 27.5936 20.5763L21.2347 14.2175C20.9366 13.9193 20.7691 13.515 20.7691 13.0934V7.12025L21.8932 5.99615C22.3479 5.5415 22.4839 4.85774 22.2378 4.2637C21.9918 3.66967 21.4121 3.28235 20.7691 3.28235H11.2309ZM14.4103 13.0934V6.46177H17.5897V13.0934C17.5897 14.3582 18.0922 15.5713 18.9866 16.4657L20.6201 18.0992C19.4805 17.8341 18.2857 17.8877 17.1685 18.2601L16.4211 18.5093C15.1158 18.9444 13.7046 18.9444 12.3994 18.5093L11.5052 18.2112C11.4447 18.191 11.3838 18.1728 11.3227 18.1564L13.0134 16.4656C13.9078 15.5713 14.4103 14.3582 14.4103 13.0934Z" fill="#334155"/>
</g>
</svg>
