<svg width="32" height="32" viewBox="0 0 32 32" fill="none" xmlns="http://www.w3.org/2000/svg">
<g id="Media / Icon">
<path id="Icon" fill-rule="evenodd" clip-rule="evenodd" d="M9.5 3C8.60254 3 7.875 3.72754 7.875 4.625V6.25H6.25C4.45507 6.25 3 7.70507 3 9.5V25.75C3 27.5449 4.45507 29 6.25 29H25.75C27.5449 29 29 27.5449 29 25.75V9.5C29 7.70507 27.5449 6.25 25.75 6.25H24.125V4.625C24.125 3.72754 23.3975 3 22.5 3C21.6025 3 20.875 3.72754 20.875 4.625V6.25H11.125V4.625C11.125 3.72754 10.3975 3 9.5 3ZM9.5 11.125C8.60254 11.125 7.875 11.8525 7.875 12.75C7.875 13.6475 8.60254 14.375 9.5 14.375H22.5C23.3975 14.375 24.125 13.6475 24.125 12.75C24.125 11.8525 23.3975 11.125 22.5 11.125H9.5Z" fill="#334155"/>
</g>
</svg>
