<svg width="32" height="32" viewBox="0 0 32 32" fill="none" xmlns="http://www.w3.org/2000/svg">
<g id="Media / Icon">
<path id="Icon" fill-rule="evenodd" clip-rule="evenodd" d="M16 29C23.1797 29 29 23.1797 29 16C29 8.8203 23.1797 3 16 3C8.8203 3 3 8.8203 3 16C3 23.1797 8.8203 29 16 29ZM17 9.5C17 8.94772 16.5523 8.5 16 8.5C15.4477 8.5 15 8.94772 15 9.5V16C15 16.2652 15.1054 16.5196 15.2929 16.7071L19.8891 21.3033C20.2796 21.6938 20.9128 21.6938 21.3033 21.3033C21.6938 20.9128 21.6938 20.2796 21.3033 19.8891L17 15.5858V9.5Z" fill="#334155"/>
</g>
</svg>
