<svg width="32" height="32" viewBox="0 0 32 32" fill="none" xmlns="http://www.w3.org/2000/svg">
<g id="Media / Icon">
<g id="Icon">
<path d="M16.6401 3.13139C16.2314 2.9562 15.7686 2.9562 15.3599 3.13139L3.98488 8.00639C3.38739 8.26246 3 8.84996 3 9.5C3 10.15 3.38739 10.7375 3.98488 10.9936L8.28186 12.8352C8.43811 12.6581 8.63398 12.5139 8.85988 12.4171L15.3599 9.63141C16.1848 9.27788 17.1401 9.66 17.4936 10.4849C17.8471 11.3098 17.465 12.2651 16.6401 12.6186L12.2084 14.518L15.3599 15.8686C15.7686 16.0438 16.2314 16.0438 16.6401 15.8686L28.0151 10.9936C28.6126 10.7375 29 10.15 29 9.5C29 8.84996 28.6126 8.26246 28.0151 8.00639L16.6401 3.13139Z" fill="#334155"/>
<path d="M5.12882 15.0197L7.875 16.1966V22.8618C7.318 22.7355 6.74896 22.6409 6.1699 22.5802C5.40652 22.5002 4.80326 21.8969 4.72321 21.1335C4.65825 20.514 4.625 19.8855 4.625 19.2497C4.625 17.7929 4.79954 16.3762 5.12882 15.0197Z" fill="#334155"/>
<path d="M14.8624 26.6803C13.769 25.6084 12.509 24.7074 11.125 24.0195V17.5895L14.0796 18.8558C15.3059 19.3813 16.6941 19.3813 17.9204 18.8558L26.8712 15.0197C27.2005 16.3762 27.375 17.7929 27.375 19.2497C27.375 19.8855 27.3417 20.514 27.2768 21.1335C27.1967 21.8969 26.5935 22.5002 25.8301 22.5802C22.4617 22.9334 19.4326 24.4304 17.1376 26.6803C16.5057 27.2998 15.4943 27.2998 14.8624 26.6803Z" fill="#334155"/>
<path d="M9.5 29C10.3975 29 11.125 28.2724 11.125 27.375V24.0195C10.1035 23.5118 9.0144 23.1202 7.875 22.8618V27.375C7.875 28.2724 8.60254 29 9.5 29Z" fill="#334155"/>
</g>
</g>
</svg>
