<?xml version="1.0" encoding="UTF-8"?>
<svg width="66px" height="84px" viewBox="0 0 66 84" version="1.1" xmlns="http://www.w3.org/2000/svg" xmlns:xlink="http://www.w3.org/1999/xlink">
    <title>ECC36E59-B032-4400-89D8-231306C1D64D@1.5x</title>
    <defs>
        <polygon id="path-1" points="9.65081722e-16 0 38.7693173 0 38.7693173 69.3109579 9.65081722e-16 69.3109579"></polygon>
        <polygon id="path-3" points="0 0 23.9512655 0 23.9512655 18.7155421 0 18.7155421"></polygon>
    </defs>
    <g id="Page-1" stroke="none" stroke-width="1" fill="none" fill-rule="evenodd">
        <g id="Plan-B-Desktop" transform="translate(-778.000000, -219.000000)">
            <g id="Group-10" transform="translate(0.000000, 130.000000)">
                <g id="Group-7" transform="translate(811.002790, 131.405483) scale(-1, 1) rotate(22.000000) translate(-811.002790, -131.405483) translate(790.138452, 95.000000)">
                    <g id="Group-3" transform="translate(0.000000, -0.000000)">
                        <mask id="mask-2" fill="white">
                            <use xlink:href="#path-1"></use>
                        </mask>
                        <g id="Clip-2"></g>
                        <path d="M20.9104762,0.0725286532 C9.25907484,4.10325732 1.13511649,15.2318106 0.116606157,27.4314342 C-1.021865,41.0707218 6.2825263,54.1569536 17.3717972,61.7572557 C20.2683718,63.7423722 23.4088338,65.3569116 26.6748746,66.6402125 C29.9584303,67.9304556 33.7872625,69.2980538 37.3484135,69.3109579 C38.937977,69.3168967 39.3437948,67.0312855 37.7909136,66.5502955 C35.0486687,65.7003814 32.1867934,65.3337712 29.4485142,64.4061714 C26.6867715,63.4703071 24.0254919,62.2726256 21.5036709,60.806846 C16.3694799,57.822725 11.8311274,53.7622444 8.57467026,48.7718499 C1.88065813,38.5127149 0.555801562,24.9838401 7.07532523,14.3177644 C10.3915975,8.89233024 15.4236731,4.56540434 21.4623621,2.47648657 C22.9494797,1.96210833 22.4091603,-0.445816508 20.9104762,0.0725286532" id="Fill-1" fill="#FEFE80" mask="url(#mask-2)"></path>
                    </g>
                    <g id="Group-6" transform="translate(17.777411, 54.095424)">
                        <mask id="mask-4" fill="white">
                            <use xlink:href="#path-3"></use>
                        </mask>
                        <g id="Clip-5"></g>
                        <path d="M9.56716222,1.7579198 C12.8123833,6.9516193 16.8834505,11.1843307 21.6257033,15.0157213 C21.6534629,14.1234932 21.6808919,13.2312651 21.708321,12.3387065 C15.2347327,15.4586948 8.25288071,16.049767 1.16924376,15.4732402 C-0.152638572,15.365472 -0.461628568,17.4001751 0.804073765,17.7522399 C8.24891506,19.821323 16.2776979,18.3889317 23.1452071,15.0626632 C24.2324553,14.5360536 24.1799105,12.9985387 23.2274942,12.3856485 C18.6131335,9.41574228 14.7043274,5.20451843 11.7644611,0.597593579 C10.9108556,-0.73992206 8.71719188,0.39759433 9.56716222,1.7579198" id="Fill-4" fill="#FEFE80" mask="url(#mask-4)"></path>
                    </g>
                </g>
            </g>
        </g>
    </g>
</svg>